<svg width="270" height="68" viewBox="0 0 270 68" fill="none" xmlns="http://www.w3.org/2000/svg" role="img" aria-labelledby="title desc">
  <title id="title">Retalors</title>
  <desc id="desc">Retalors shop management logo for dark backgrounds</desc>
  <rect x="6" y="10" width="50" height="48" rx="12" fill="#ECFDF5"/>
  <path d="M14 26L19 16H43L48 26" fill="#F59E0B"/>
  <path d="M14 26H48" stroke="#064E3B" stroke-width="3" stroke-linecap="round"/>
  <path d="M19 29V48H43V29" stroke="#064E3B" stroke-width="3.5" stroke-linecap="round" stroke-linejoin="round"/>
  <path d="M25 48V36H31.8C35 36 37.2 38 37.2 40.8C37.2 42.8 36.1 44.4 34.3 45.2L38.2 48H32.7L29.5 45.4H29V48H25ZM29 42.1H31.6C32.5 42.1 33.2 41.6 33.2 40.8C33.2 40 32.5 39.5 31.6 39.5H29V42.1Z" fill="#064E3B"/>
  <text x="72" y="43" fill="#FFFFFF" font-family="Inter, Segoe UI, Arial, sans-serif" font-size="35" font-weight="800" letter-spacing="-0.8">Retalors</text>
  <text x="74" y="57" fill="#A7F3D0" font-family="Inter, Segoe UI, Arial, sans-serif" font-size="10" font-weight="700" letter-spacing="1.6">SHOP MANAGEMENT</text>
</svg>