<svg width="64" height="64" viewBox="0 0 64 64" fill="none" xmlns="http://www.w3.org/2000/svg">
  <rect x="6" y="8" width="52" height="50" rx="13" fill="#064E3B"/>
  <path d="M14 25L20 14H44L50 25" fill="#F59E0B"/>
  <path d="M14 25H50" stroke="#FFFFFF" stroke-width="3.5" stroke-linecap="round"/>
  <path d="M20 29V49H44V29" stroke="#FFFFFF" stroke-width="4" stroke-linecap="round" stroke-linejoin="round"/>
  <path d="M26 49V36H33.5C36.8 36 39.1 38 39.1 40.9C39.1 43 37.9 44.7 36 45.5L40 49H34.3L31 46H30.2V49H26ZM30.2 42.6H33C34 42.6 34.7 42 34.7 41.1C34.7 40.2 34 39.6 33 39.6H30.2V42.6Z" fill="#FFFFFF"/>
</svg>